# xmcd CD database file
#
# Track frame offsets:
#	150
#	76957
#	125917
#	177872
#	259070
#	275025
#	298657
#	307790
#	315880
#
# Disc length: 4421 seconds
#
# Revision: 0
# Processed by: cddbd v1.5.1PL0 Copyright (c) Steve Scherf et al.
# Submitted via: CDex 1.51
#
DISCID=7a114309
DTITLE=George Gerschwin - By George
DYEAR=1900
DGENRE=Jazz
TTITLE0=CD1 01 Rhapsody in Blue Orig Jazz Collection
TTITLE1=CD1 02 Piano Concerto in F, 2nd Movement
TTITLE2=CD1 03 Cuban Overture
TTITLE3=CD1 04 An Americal in Paris
TTITLE4=CD1 05 's Wonderful
TTITLE5=CD1 06 The Man I Love
TTITLE6=CD1 07 Fascinating Rythm
TTITLE7=CD1 08 LIza
TTITLE8=CD1 09 I Got Rythm
EXTD=
EXTT0=
EXTT1=
EXTT2=
EXTT3=
EXTT4=
EXTT5=
EXTT6=
EXTT7=
EXTT8=
PLAYORDER=
